<?xml version="1.0" encoding="UTF-8" standalone="no"?>
<svg
   xmlns:dc="http://purl.org/dc/elements/1.1/"
   xmlns:cc="http://creativecommons.org/ns#"
   xmlns:rdf="http://www.w3.org/1999/02/22-rdf-syntax-ns#"
   xmlns:svg="http://www.w3.org/2000/svg"
   xmlns="http://www.w3.org/2000/svg"
   xmlns:sodipodi="http://sodipodi.sourceforge.net/DTD/sodipodi-0.dtd"
   xmlns:inkscape="http://www.inkscape.org/namespaces/inkscape"
   width="48"
   height="48"
   viewBox="0 0 48 48"
   id="svg3336"
   version="1.1"
   inkscape:version="0.91pre4 r13712"
   sodipodi:docname="icon.svg"
   inkscape:export-filename="D:\Documents\icon.png"
   inkscape:export-xdpi="90"
   inkscape:export-ydpi="90">
  <metadata
     id="metadata3346">
    <rdf:RDF>
      <cc:Work
         rdf:about="">
        <dc:format>image/svg+xml</dc:format>
        <dc:type
           rdf:resource="http://purl.org/dc/dcmitype/StillImage" />
      </cc:Work>
    </rdf:RDF>
  </metadata>
  <defs
     id="defs3344" />
  <sodipodi:namedview
     pagecolor="#ffffff"
     bordercolor="#666666"
     borderopacity="1"
     objecttolerance="10"
     gridtolerance="10"
     guidetolerance="10"
     inkscape:pageopacity="0"
     inkscape:pageshadow="2"
     inkscape:window-width="1920"
     inkscape:window-height="1017"
     id="namedview3342"
     showgrid="false"
     inkscape:zoom="8.8333333"
     inkscape:cx="17.921853"
     inkscape:cy="26.149061"
     inkscape:window-x="-8"
     inkscape:window-y="-8"
     inkscape:window-maximized="1"
     inkscape:current-layer="svg3336" />
  <g
     id="g3338">
    <path
       stroke="null"
       id="svg_1"
       fill="none"
       d="m0,0l48,0l0,48l-48,0l0,-48z" />
    <path
       id="svg_2"
       d="M 25.99,6 C 16.040001,6 8,14.06 8,24 L 2,24 9.79,31.790001 9.93,32.080002 18,24 12,24 c 0,-7.73 6.27,-14 14,-14 7.73,0 14,6.27 14,14 0,7.73 -6.27,14 -14,14 -3.870001,0 -7.360001,-1.580002 -9.889999,-4.110001 L 13.28,36.720001 C 16.530001,39.979999 21.020001,42 25.99,42 35.939999,42 44,33.939999 44,24 44,14.060001 35.939999,6 25.99,6 Z"
       inkscape:connector-curvature="0"
       style="opacity:0.9;fill:#3f9349"
       sodipodi:nodetypes="sccccccsssccsss" />
    <path
       inkscape:connector-curvature="0"
       d="m 36.385558,17.183521 -1.379929,13.203278 c -0.04714,0.451814 -0.415649,0.789414 -0.854643,0.815964 l -0.168926,-3.684541 0.398714,0.04165 1.094511,-10.471573 -11.61003,-1.213305 -0.153344,1.468278 -0.924912,0.04233 0.167794,-1.606064 c 0.05264,-0.503085 0.502625,-0.867921 1.005707,-0.815506 l 11.609804,1.213301 c 0.503079,0.05286 0.86792,0.503084 0.815275,1.006164 z m -3.285369,1.103668 0.608367,13.261183 c 0.02319,0.505372 -0.367356,0.933381 -0.872498,0.9565 l -11.660613,0.535124 c -0.505371,0.02319 -0.933381,-0.367355 -0.956497,-0.872495 L 19.610351,18.906314 c -0.02319,-0.505371 0.367355,-0.933381 0.872497,-0.956496 l 11.660615,-0.535127 c 0.5056,-0.02319 0.93361,0.367356 0.956726,0.872498 z M 21.007445,29.381778 32.66806,28.846652 32.185579,18.329074 20.524963,18.864201 21.007445,29.381778 Z m 11.058654,-3.670119 c -0.01484,-0.324326 -0.144204,-0.632858 -0.365064,-0.870896 l -0.819859,-0.883942 c -0.285183,-0.273284 -0.737913,-0.252443 -0.996777,0.04579 l -1.483841,1.717758 -3.222657,-3.969497 c -0.276947,-0.342407 -0.801545,-0.338975 -1.071852,0.008 l -2.518845,3.318787 c -0.194318,0.256102 -0.292756,0.572203 -0.277865,0.893095 l 0.134594,2.932663 10.746231,-0.493008 -0.12405,-2.698749 z M 30.18126,22.087087 c 0.695113,-0.0318 1.231613,-0.620271 1.199796,-1.315156 -0.03185,-0.695115 -0.62027,-1.231615 -1.315155,-1.199798 -0.695115,0.0318 -1.231612,0.620269 -1.199797,1.315154 0.03203,0.695115 0.620269,1.231844 1.315156,1.1998 z"
       id="path3349"
       style="fill:#3f9349;fill-opacity:1;opacity:0.9" />
  </g>
</svg>
